<svg clip-rule="evenodd" fill-rule="evenodd" stroke-linejoin="round" stroke-miterlimit="2" viewBox="0 0 1000 1000" xmlns="http://www.w3.org/2000/svg" xmlns:xlink="http://www.w3.org/1999/xlink"><linearGradient id="a" gradientTransform="matrix(-911.312 0 -0 -911.312 1182.28 989.476)" gradientUnits="userSpaceOnUse" x1="0" x2="1" y1="0" y2="0"><stop offset="0" stop-color="#bdc0c4" stop-opacity=".5"/><stop offset=".35" stop-color="#bdc0c4" stop-opacity=".5"/><stop offset=".71" stop-color="#bdc0c4" stop-opacity="0"/><stop offset="1" stop-color="#bdc0c4" stop-opacity="0"/></linearGradient><linearGradient id="b" gradientTransform="matrix(-801.02 0 -0 -801.02 1127.01 893.177)" gradientUnits="userSpaceOnUse" x1="0" x2="1" y1="0" y2="0"><stop offset="0" stop-color="#bdc0c4" stop-opacity="0"/><stop offset="1" stop-color="#bdc0c4" stop-opacity=".3"/></linearGradient><linearGradient id="c" gradientTransform="matrix(0 361.161 -361.161 0 881.858 689.982)" gradientUnits="userSpaceOnUse" x1="0" x2="1" y1="0" y2="0"><stop offset="0" stop-color="#2c6333" stop-opacity="0"/><stop offset=".31" stop-color="#2c6333" stop-opacity="0"/><stop offset=".35" stop-color="#2c6333" stop-opacity=".05"/><stop offset="1" stop-color="#2c6333"/></linearGradient><g fill-rule="nonzero"><path d="m1118.7 754.3c0 215.5-174.7 390.1-390.1 390.1-215.5 0-390.1-174.7-390.1-390.1s174.7-390.1 390.1-390.1 390.1 174.7 390.1 390.1" fill="#fff" transform="translate(-219.463 -250)"/><path d="m1095.7 754.3c0 202.8-164.4 367.1-367.2 367.1s-367.2-164.4-367.2-367.1 164.4-367.1 367.2-367.1 367.2 164.4 367.2 367.1" fill="#ebeced" transform="translate(-219.463 -250)"/><g transform="translate(-217.512 -356.257)"><path d="m1166.9 975.7-577.5-333.7c-13.7-7.9-30.5-7.8-44.1.2l-261.2 153.6c-8.9 5.2-13.2 14.3-13.1 23.3v4.5c.2 8.7 4.7 14.2 13.3 19.2l570.2 329.5c21.9 12.7 49 12.6 70.8-.3l241.8-142.3c16.7-8.9 14.7-23.9 14.7-23.9 1.4-11.3-3.4-23.5-14.9-30.1z"/><path d="m282.2 797.1c-7.8 6.3 2.1 13.3 2.1 13.3l570.2 329.5c21.9 12.7 49 12.6 70.8-.3l253.9-150.5c2.4 5.3 3.3 11.1 2.6 16.8l.5-2.8c0 10.3-5 20.7-15.2 26.6l-241.8 142.3c-21.8 12.8-48.9 13-70.8.3l-570.2-329.4c-8.6-5-13.1-13.6-13.3-22.3v-1.4c-.1-8.4 3.7-16.8 11.2-22.1z" fill="url(#a)"/><path d="m620 660.1 507 293.8-297.4 172.4-503.6-291.9z" fill="url(#b)"/><g fill="#acb0b4" opacity=".3"><path d="m829.4 1126.3 299.6-173.2-5.1-2.9-299.2 172.9z"/><path d="m330.8 837.5 294.3-174.7-4.9-2.7-294.7 174.2z"/></g><path d="m1037.1 1098.8 34.8-20.1c2.7-1.6 4.9-5.8 4.9-9.4s-2.2-5.3-4.9-3.7l-34.8 20.1c-2.7 1.6-4.9 5.8-4.9 9.4-.1 3.6 2.1 5.2 4.9 3.7z" fill="#f7f8f9"/><path d="m1033 1094.7 34.8-20.1c2.7-1.6 4.9-5.8 4.9-9.4 2.3-.8 4.1.8 4.1 4.1 0 3.6-2.2 7.8-4.9 9.4l-34.8 20.1c-2.7 1.6-4.9-.1-4.9-3.7.2-.2.5-.3.8-.4z" fill="#bdc0c4"/><path d="m436.5 739.8 35.9-20.7c2-1.1 1.7-3.1-.5-4.4-2.3-1.3-5.7-1.4-7.6-.3l-35.9 20.7c-2 1.1-1.7 3.1.5 4.4s5.7 1.4 7.6.3z" fill="#e7e9ec"/><path d="m472.4 719.1-.2.1c-.1-.1-.2-.2-.4-.3-2.3-1.3-5.7-1.4-7.6-.3l-35.7 20.6c-1.9-1.3-2-3.1-.2-4.1l35.9-20.7c2-1.1 5.4-1 7.6.3 2.3 1.3 2.5 3.2.6 4.4z" fill="#bdc0c4"/></g><g transform="translate(-216.35 -352.321)"><path d="m563.4 542.4 20.3-14.5h1c4.3-.3 9.8 4.7 12.2 11.2l36 97c28.5 1.2 60.2 11.1 93.7 30.8 29.9 17.6 58.4 41.4 84.4 69.4l3.1 3.3 21.9-33.2 1.8-2 20.2-14.4 3.6.2c2.2.6 4.6 2.3 6.8 5 4.3 5.4 5.9 12.7 3.4 16.4l-35.7 54c62 78 105.4 179.2 111.8 271.1l-20.3 14.5-442.8-261c4.3-55.6 24.6-96.3 55.7-119l26.4-18.6c7-4.4 14.4-7.9 22.3-10.6l3.6-1.1-32-86.1c-2.4-6.5-.9-12 3.4-12.3" fill="#5db273"/><path d="m603.7 715c-.5-.3-.9-.4-1.3-.6.5 13.9 9.9 30.4 21.6 37.3.5.3.9.4 1.3.6-.5-13.9-9.9-30.4-21.6-37.3z" fill="#e7f2ea"/><path d="m808.8 835.9c-.5-.3-.9-.4-1.3-.6.5 13.9 9.9 30.4 21.6 37.3.5.3.9.4 1.3.6-.4-13.9-9.9-30.4-21.6-37.3z" fill="#e7f2ea"/><path d="m927.7 1051.1-442.8-261c6.4-84.3 49.8-134.3 111.8-139.3l-35.7-96.1c-2.4-6.5-.9-12 3.4-12.3s9.8 4.7 12.2 11.2l36 97c28.5 1.2 60.2 11.1 93.7 30.8s65.2 47.2 93.7 79.6l36-54.5c2.4-3.7 7.9-2.3 12.2 3.1s5.9 12.7 3.4 16.4l-35.7 54c62 78.1 105.3 179.3 111.8 271.1zm-302.3-297.7c0-14.1-9.7-31.3-21.7-38.3-12-7.1-21.7-1.3-21.7 12.8s9.7 31.3 21.7 38.3 21.7 1.3 21.7-12.8zm205.1 120.9c0-14.1-9.7-31.3-21.7-38.3-12-7.1-21.7-1.3-21.7 12.8s9.7 31.3 21.7 38.3 21.7 1.3 21.7-12.8z" fill="#6ed68c"/><path d="m836.1 765.6 35.7-54c2.4-3.7.9-11-3.4-16.4-2.2-2.7-4.6-4.4-6.8-5l-3.6-.2-20.3 14.5-1.8 2c2.4-3.7 7.9-2.3 12.2 3.1s5.9 12.7 3.4 16.4l-35.7 54c62 78 105.4 179.2 111.8 271.1l20.3-14.5c-6.4-91.8-49.8-193-111.8-271z" fill="url(#c)"/><path d="m836.1 765.6 35.7-54c2.4-3.7.9-11-3.4-16.4-2.2-2.7-4.6-4.4-6.8-5l-3.6-.2-20.3 14.5-1.8 2c2.4-3.7 7.9-2.3 12.2 3.1s5.9 12.7 3.4 16.4l-35.7 54z" fill="#5db273"/><path d="m647.6 886.1-162.8-95.9c6.4-84.3 49.8-134.3 111.8-139.3l-35.6-96.2c-2.4-6.5-.9-12 3.4-12.3s9.8 4.7 12.2 11.2l36 97c28.1 1.1 59.3 10.8 92.3 30zm-22.2-132.7c0-14.1-9.7-31.3-21.7-38.3-12-7.1-21.7-1.3-21.7 12.8s9.7 31.3 21.7 38.3 21.7 1.3 21.7-12.8z" fill="#f7f8f9" fill-opacity=".12" opacity=".12"/></g></g><path d="m-219.463-250h1500v1500h-1500z" fill="none"/><path d="m-219.463-250h1500v1500h-1500z" fill="none"/></svg>