<?xml version="1.0" encoding="UTF-8" standalone="no"?>
<!DOCTYPE svg PUBLIC "-//W3C//DTD SVG 1.1//EN" "http://www.w3.org/Graphics/SVG/1.1/DTD/svg11.dtd">
<svg width="100%" height="100%" viewBox="0 0 24 24" version="1.1" xmlns="http://www.w3.org/2000/svg" xmlns:xlink="http://www.w3.org/1999/xlink" xml:space="preserve" xmlns:serif="http://www.serif.com/" style="fill-rule:evenodd;clip-rule:evenodd;stroke-linecap:round;stroke-linejoin:round;stroke-miterlimit:10;">
    <path d="M16,22L8,22C6.9,22 6,21.1 6,20L6,4C6,2.9 6.9,2 8,2L16,2C17.1,2 18,2.9 18,4L18,20C18,21.1 17.1,22 16,22Z" style="fill:rgb(255,231,194);stroke:rgb(255,115,115);stroke-width:1px;"/>
    <path d="M13.47,3L10.53,3C10.51,3 10.5,2.99 10.5,2.97L10.5,2L13.5,2L13.5,2.97C13.5,2.99 13.49,3 13.47,3Z" style="fill:none;fill-rule:nonzero;stroke:rgb(255,115,115);stroke-width:1px;stroke-linejoin:miter;"/>
    <g transform="matrix(0.400507,0,0,0.400507,13.1939,13.5894)">
        <path d="M22,19L12,21L12,5L22,3L22,19Z" style="fill:rgb(152,238,213);fill-rule:nonzero;stroke:rgb(38,95,88);stroke-width:1px;stroke-miterlimit:4;"/>
        <path d="M2,19L12,21L12,5L2,3L2,19Z" style="fill:rgb(152,238,213);fill-rule:nonzero;stroke:rgb(38,95,88);stroke-width:1px;stroke-miterlimit:4;"/>
        <path d="M5,12L9,13" style="fill:none;fill-rule:nonzero;stroke:rgb(38,95,88);stroke-width:1px;"/>
        <path d="M5,8L9,9" style="fill:none;fill-rule:nonzero;stroke:rgb(38,95,88);stroke-width:1px;"/>
        <path d="M5,16L9,17" style="fill:none;fill-rule:nonzero;stroke:rgb(38,95,88);stroke-width:1px;"/>
        <path d="M15,13L19,12" style="fill:none;fill-rule:nonzero;stroke:rgb(38,95,88);stroke-width:1px;"/>
        <path d="M15,9L19,8" style="fill:none;fill-rule:nonzero;stroke:rgb(38,95,88);stroke-width:1px;"/>
    </g>
    <path d="M8.212,5.42L14.91,5.42" style="fill:none;stroke:black;stroke-width:0.5px;stroke-miterlimit:1.5;"/>
    <path d="M8.163,7.09L12.846,7.09" style="fill:none;stroke:black;stroke-width:0.5px;stroke-miterlimit:1.5;"/>
    <path d="M8.1,9.093L14.711,9.093" style="fill:none;stroke:black;stroke-width:0.5px;stroke-miterlimit:1.5;"/>
    <path d="M8.162,11.001L11.903,11.001" style="fill:none;stroke:black;stroke-width:0.5px;stroke-miterlimit:1.5;"/>
    <path d="M8.108,13.059L10.461,13.059" style="fill:none;stroke:black;stroke-width:0.5px;stroke-miterlimit:1.5;"/>
</svg>
